<mxfile host="app.diagrams.net" agent="Mozilla/5.0 (X11; Ubuntu; Linux x86_64; rv:138.0) Gecko/20100101 Firefox/138.0" version="27.0.9">
  <diagram name="PÃ¡gina-1" id="EA2uWLYJ_UOKSl-ZkAOq">
    <mxGraphModel dx="944" dy="574" grid="1" gridSize="10" guides="1" tooltips="1" connect="1" arrows="1" fold="1" page="1" pageScale="1" pageWidth="827" pageHeight="1169" math="0" shadow="0">
      <root>
        <mxCell id="0" />
        <mxCell id="1" parent="0" />
        <mxCell id="xxiWGJY82aHQJvhDrTCa-1" value="1" style="ellipse;whiteSpace=wrap;html=1;aspect=fixed;" parent="1" vertex="1">
          <mxGeometry x="80" y="240" width="40" height="40" as="geometry" />
        </mxCell>
        <mxCell id="xxiWGJY82aHQJvhDrTCa-2" value="3" style="ellipse;whiteSpace=wrap;html=1;aspect=fixed;" parent="1" vertex="1">
          <mxGeometry x="340" y="150" width="40" height="40" as="geometry" />
        </mxCell>
        <mxCell id="xxiWGJY82aHQJvhDrTCa-3" value="2" style="ellipse;whiteSpace=wrap;html=1;aspect=fixed;" parent="1" vertex="1">
          <mxGeometry x="340" y="200" width="40" height="40" as="geometry" />
        </mxCell>
        <mxCell id="xxiWGJY82aHQJvhDrTCa-4" value="13" style="ellipse;whiteSpace=wrap;html=1;aspect=fixed;" parent="1" vertex="1">
          <mxGeometry x="580" y="240" width="40" height="40" as="geometry" />
        </mxCell>
        <mxCell id="xxiWGJY82aHQJvhDrTCa-8" value="" style="curved=1;endArrow=classic;html=1;rounded=0;entryX=0;entryY=0.5;entryDx=0;entryDy=0;exitX=1;exitY=0;exitDx=0;exitDy=0;" parent="1" source="xxiWGJY82aHQJvhDrTCa-1" target="xxiWGJY82aHQJvhDrTCa-3" edge="1">
          <mxGeometry width="50" height="50" relative="1" as="geometry">
            <mxPoint x="96" y="230" as="sourcePoint" />
            <mxPoint x="224.86" y="174" as="targetPoint" />
            <Array as="points">
              <mxPoint x="180" y="180" />
            </Array>
          </mxGeometry>
        </mxCell>
        <mxCell id="xxiWGJY82aHQJvhDrTCa-15" value="|" style="edgeLabel;html=1;align=center;verticalAlign=middle;resizable=0;points=[];" parent="xxiWGJY82aHQJvhDrTCa-8" vertex="1" connectable="0">
          <mxGeometry x="-0.0264" relative="1" as="geometry">
            <mxPoint x="18" y="12" as="offset" />
          </mxGeometry>
        </mxCell>
        <mxCell id="xxiWGJY82aHQJvhDrTCa-10" value="" style="endArrow=classic;html=1;rounded=0;exitX=1;exitY=0.5;exitDx=0;exitDy=0;entryX=0;entryY=0.5;entryDx=0;entryDy=0;" parent="1" source="xxiWGJY82aHQJvhDrTCa-1" target="xxiWGJY82aHQJvhDrTCa-4" edge="1">
          <mxGeometry width="50" height="50" relative="1" as="geometry">
            <mxPoint x="390" y="290" as="sourcePoint" />
            <mxPoint x="440" y="240" as="targetPoint" />
          </mxGeometry>
        </mxCell>
        <mxCell id="xxiWGJY82aHQJvhDrTCa-13" value=". , : ; ? + - * ( ) [ ]" style="edgeLabel;html=1;align=center;verticalAlign=middle;resizable=0;points=[];" parent="xxiWGJY82aHQJvhDrTCa-10" vertex="1" connectable="0">
          <mxGeometry x="0.0304" relative="1" as="geometry">
            <mxPoint x="-7" as="offset" />
          </mxGeometry>
        </mxCell>
        <mxCell id="xxiWGJY82aHQJvhDrTCa-16" value="" style="curved=1;endArrow=classic;html=1;rounded=0;entryX=0.275;entryY=0;entryDx=0;entryDy=0;exitX=1;exitY=0.5;exitDx=0;exitDy=0;entryPerimeter=0;" parent="1" source="xxiWGJY82aHQJvhDrTCa-3" target="xxiWGJY82aHQJvhDrTCa-4" edge="1">
          <mxGeometry width="50" height="50" relative="1" as="geometry">
            <mxPoint x="490" y="236" as="sourcePoint" />
            <mxPoint x="716" y="170" as="targetPoint" />
            <Array as="points">
              <mxPoint x="470" y="210" />
              <mxPoint x="510" y="210" />
              <mxPoint x="540" y="220" />
            </Array>
          </mxGeometry>
        </mxCell>
        <mxCell id="xxiWGJY82aHQJvhDrTCa-17" value="|" style="edgeLabel;html=1;align=center;verticalAlign=middle;resizable=0;points=[];" parent="xxiWGJY82aHQJvhDrTCa-16" vertex="1" connectable="0">
          <mxGeometry x="-0.0264" relative="1" as="geometry">
            <mxPoint as="offset" />
          </mxGeometry>
        </mxCell>
        <mxCell id="xxiWGJY82aHQJvhDrTCa-18" value="" style="curved=1;endArrow=classic;html=1;rounded=0;exitX=0.7;exitY=0.075;exitDx=0;exitDy=0;exitPerimeter=0;entryX=0;entryY=0.5;entryDx=0;entryDy=0;" parent="1" source="xxiWGJY82aHQJvhDrTCa-1" target="xxiWGJY82aHQJvhDrTCa-2" edge="1">
          <mxGeometry width="50" height="50" relative="1" as="geometry">
            <mxPoint x="100" y="226" as="sourcePoint" />
            <mxPoint x="330" y="130" as="targetPoint" />
            <Array as="points">
              <mxPoint x="160" y="150" />
            </Array>
          </mxGeometry>
        </mxCell>
        <mxCell id="xxiWGJY82aHQJvhDrTCa-23" value="&amp;amp;" style="edgeLabel;html=1;align=center;verticalAlign=middle;resizable=0;points=[];" parent="xxiWGJY82aHQJvhDrTCa-18" vertex="1" connectable="0">
          <mxGeometry x="-0.0472" y="-1" relative="1" as="geometry">
            <mxPoint x="30" y="16" as="offset" />
          </mxGeometry>
        </mxCell>
        <mxCell id="xxiWGJY82aHQJvhDrTCa-24" value="" style="curved=1;endArrow=classic;html=1;rounded=0;exitX=1;exitY=0.5;exitDx=0;exitDy=0;entryX=0.5;entryY=0;entryDx=0;entryDy=0;" parent="1" source="xxiWGJY82aHQJvhDrTCa-2" target="xxiWGJY82aHQJvhDrTCa-4" edge="1">
          <mxGeometry width="50" height="50" relative="1" as="geometry">
            <mxPoint x="380" y="181.5" as="sourcePoint" />
            <mxPoint x="612" y="58.5" as="targetPoint" />
            <Array as="points">
              <mxPoint x="450" y="150" />
            </Array>
          </mxGeometry>
        </mxCell>
        <mxCell id="xxiWGJY82aHQJvhDrTCa-25" value="&amp;amp;" style="edgeLabel;html=1;align=center;verticalAlign=middle;resizable=0;points=[];" parent="xxiWGJY82aHQJvhDrTCa-24" vertex="1" connectable="0">
          <mxGeometry x="-0.0472" y="-1" relative="1" as="geometry">
            <mxPoint x="-28" as="offset" />
          </mxGeometry>
        </mxCell>
        <mxCell id="xxiWGJY82aHQJvhDrTCa-26" value="5" style="ellipse;whiteSpace=wrap;html=1;aspect=fixed;" parent="1" vertex="1">
          <mxGeometry x="170" y="80" width="40" height="40" as="geometry" />
        </mxCell>
        <mxCell id="xxiWGJY82aHQJvhDrTCa-28" value="" style="curved=1;endArrow=classic;html=1;rounded=0;exitX=0.5;exitY=0;exitDx=0;exitDy=0;entryX=0;entryY=0.5;entryDx=0;entryDy=0;" parent="1" source="xxiWGJY82aHQJvhDrTCa-1" target="xxiWGJY82aHQJvhDrTCa-26" edge="1">
          <mxGeometry width="50" height="50" relative="1" as="geometry">
            <mxPoint x="390" y="290" as="sourcePoint" />
            <mxPoint x="440" y="240" as="targetPoint" />
            <Array as="points">
              <mxPoint x="120" y="140" />
            </Array>
          </mxGeometry>
        </mxCell>
        <mxCell id="xxiWGJY82aHQJvhDrTCa-29" value="%" style="edgeLabel;html=1;align=center;verticalAlign=middle;resizable=0;points=[];" parent="xxiWGJY82aHQJvhDrTCa-28" vertex="1" connectable="0">
          <mxGeometry x="0.2513" y="-17" relative="1" as="geometry">
            <mxPoint x="-3" y="-8" as="offset" />
          </mxGeometry>
        </mxCell>
        <mxCell id="xxiWGJY82aHQJvhDrTCa-34" value="6" style="ellipse;whiteSpace=wrap;html=1;aspect=fixed;" parent="1" vertex="1">
          <mxGeometry x="30" y="120" width="40" height="40" as="geometry" />
        </mxCell>
        <mxCell id="xxiWGJY82aHQJvhDrTCa-35" value="" style="curved=1;endArrow=classic;html=1;rounded=0;exitX=0.25;exitY=0;exitDx=0;exitDy=0;exitPerimeter=0;entryX=0.5;entryY=1;entryDx=0;entryDy=0;" parent="1" source="xxiWGJY82aHQJvhDrTCa-1" target="xxiWGJY82aHQJvhDrTCa-34" edge="1">
          <mxGeometry width="50" height="50" relative="1" as="geometry">
            <mxPoint x="90" y="195" as="sourcePoint" />
            <mxPoint x="50" y="170" as="targetPoint" />
            <Array as="points">
              <mxPoint x="40" y="190" />
            </Array>
          </mxGeometry>
        </mxCell>
        <mxCell id="xxiWGJY82aHQJvhDrTCa-37" value="{" style="edgeLabel;html=1;align=center;verticalAlign=middle;resizable=0;points=[];" parent="xxiWGJY82aHQJvhDrTCa-35" vertex="1" connectable="0">
          <mxGeometry x="0.0157" y="-1" relative="1" as="geometry">
            <mxPoint as="offset" />
          </mxGeometry>
        </mxCell>
        <mxCell id="xxiWGJY82aHQJvhDrTCa-38" value="" style="curved=1;endArrow=classic;html=1;rounded=0;exitX=1;exitY=0.5;exitDx=0;exitDy=0;entryX=0;entryY=0.25;entryDx=0;entryDy=0;entryPerimeter=0;" parent="1" source="xxiWGJY82aHQJvhDrTCa-34" target="xxiWGJY82aHQJvhDrTCa-34" edge="1">
          <mxGeometry width="50" height="50" relative="1" as="geometry">
            <mxPoint x="400" y="230" as="sourcePoint" />
            <mxPoint x="450" y="180" as="targetPoint" />
            <Array as="points">
              <mxPoint x="80" y="110" />
              <mxPoint x="40" y="90" />
            </Array>
          </mxGeometry>
        </mxCell>
        <mxCell id="xxiWGJY82aHQJvhDrTCa-39" value="!= }" style="edgeLabel;html=1;align=center;verticalAlign=middle;resizable=0;points=[];" parent="xxiWGJY82aHQJvhDrTCa-38" vertex="1" connectable="0">
          <mxGeometry x="-0.1057" y="6" relative="1" as="geometry">
            <mxPoint x="6" as="offset" />
          </mxGeometry>
        </mxCell>
        <mxCell id="xxiWGJY82aHQJvhDrTCa-42" value="" style="curved=1;endArrow=classic;html=1;rounded=0;exitX=0;exitY=0.5;exitDx=0;exitDy=0;entryX=0;entryY=0;entryDx=0;entryDy=0;" parent="1" source="xxiWGJY82aHQJvhDrTCa-34" target="xxiWGJY82aHQJvhDrTCa-1" edge="1">
          <mxGeometry width="50" height="50" relative="1" as="geometry">
            <mxPoint x="400" y="230" as="sourcePoint" />
            <mxPoint x="450" y="180" as="targetPoint" />
            <Array as="points">
              <mxPoint x="20" y="170" />
              <mxPoint x="30" y="210" />
            </Array>
          </mxGeometry>
        </mxCell>
        <mxCell id="xxiWGJY82aHQJvhDrTCa-43" value="&amp;nbsp;} " style="edgeLabel;html=1;align=center;verticalAlign=middle;resizable=0;points=[];" parent="xxiWGJY82aHQJvhDrTCa-42" vertex="1" connectable="0">
          <mxGeometry x="-0.3227" y="5" relative="1" as="geometry">
            <mxPoint as="offset" />
          </mxGeometry>
        </mxCell>
        <mxCell id="xxiWGJY82aHQJvhDrTCa-45" value="" style="curved=1;endArrow=classic;html=1;rounded=0;exitX=1;exitY=0;exitDx=0;exitDy=0;entryX=0;entryY=0;entryDx=0;entryDy=0;" parent="1" source="xxiWGJY82aHQJvhDrTCa-26" target="xxiWGJY82aHQJvhDrTCa-26" edge="1">
          <mxGeometry width="50" height="50" relative="1" as="geometry">
            <mxPoint x="380" y="110" as="sourcePoint" />
            <mxPoint x="340" y="100" as="targetPoint" />
            <Array as="points">
              <mxPoint x="204" y="30" />
              <mxPoint x="160" y="60" />
            </Array>
          </mxGeometry>
        </mxCell>
        <mxCell id="xxiWGJY82aHQJvhDrTCa-47" value="!= /n" style="edgeLabel;html=1;align=center;verticalAlign=middle;resizable=0;points=[];" parent="xxiWGJY82aHQJvhDrTCa-45" vertex="1" connectable="0">
          <mxGeometry x="-0.1564" y="6" relative="1" as="geometry">
            <mxPoint x="-5" y="13" as="offset" />
          </mxGeometry>
        </mxCell>
        <mxCell id="xxiWGJY82aHQJvhDrTCa-48" value="" style="curved=1;endArrow=classic;html=1;rounded=0;entryX=0.35;entryY=0.05;entryDx=0;entryDy=0;entryPerimeter=0;exitX=-0.025;exitY=0.25;exitDx=0;exitDy=0;exitPerimeter=0;" parent="1" source="xxiWGJY82aHQJvhDrTCa-26" target="xxiWGJY82aHQJvhDrTCa-1" edge="1">
          <mxGeometry width="50" height="50" relative="1" as="geometry">
            <mxPoint x="340" y="80" as="sourcePoint" />
            <mxPoint x="450" y="240" as="targetPoint" />
            <Array as="points">
              <mxPoint x="110" y="120" />
              <mxPoint x="100" y="180" />
            </Array>
          </mxGeometry>
        </mxCell>
        <mxCell id="xxiWGJY82aHQJvhDrTCa-49" value="&amp;nbsp;/n " style="edgeLabel;html=1;align=center;verticalAlign=middle;resizable=0;points=[];" parent="xxiWGJY82aHQJvhDrTCa-48" vertex="1" connectable="0">
          <mxGeometry x="-0.4231" y="6" relative="1" as="geometry">
            <mxPoint as="offset" />
          </mxGeometry>
        </mxCell>
        <mxCell id="xxiWGJY82aHQJvhDrTCa-50" value="" style="curved=1;endArrow=classic;html=1;rounded=0;exitX=0.217;exitY=0.992;exitDx=0;exitDy=0;entryX=0.05;entryY=0.7;entryDx=0;entryDy=0;entryPerimeter=0;exitPerimeter=0;" parent="1" source="xxiWGJY82aHQJvhDrTCa-1" target="xxiWGJY82aHQJvhDrTCa-1" edge="1">
          <mxGeometry width="50" height="50" relative="1" as="geometry">
            <mxPoint x="400" y="290" as="sourcePoint" />
            <mxPoint x="450" y="240" as="targetPoint" />
            <Array as="points">
              <mxPoint x="80" y="310" />
              <mxPoint x="50" y="290" />
            </Array>
          </mxGeometry>
        </mxCell>
        <mxCell id="xxiWGJY82aHQJvhDrTCa-52" value="/n /t /r" style="edgeLabel;html=1;align=center;verticalAlign=middle;resizable=0;points=[];" parent="xxiWGJY82aHQJvhDrTCa-50" vertex="1" connectable="0">
          <mxGeometry x="-0.12" y="2" relative="1" as="geometry">
            <mxPoint x="2" y="6" as="offset" />
          </mxGeometry>
        </mxCell>
        <mxCell id="xxiWGJY82aHQJvhDrTCa-53" value="" style="endArrow=classic;html=1;rounded=0;" parent="1" edge="1">
          <mxGeometry width="50" height="50" relative="1" as="geometry">
            <mxPoint x="10" y="260" as="sourcePoint" />
            <mxPoint x="80" y="260" as="targetPoint" />
          </mxGeometry>
        </mxCell>
        <mxCell id="xxiWGJY82aHQJvhDrTCa-54" value="4" style="ellipse;whiteSpace=wrap;html=1;aspect=fixed;" parent="1" vertex="1">
          <mxGeometry x="340" y="100" width="40" height="40" as="geometry" />
        </mxCell>
        <mxCell id="xxiWGJY82aHQJvhDrTCa-55" value="" style="curved=1;endArrow=classic;html=1;rounded=0;exitX=0.5;exitY=0;exitDx=0;exitDy=0;entryX=0.075;entryY=0.325;entryDx=0;entryDy=0;entryPerimeter=0;" parent="1" source="xxiWGJY82aHQJvhDrTCa-1" target="xxiWGJY82aHQJvhDrTCa-54" edge="1">
          <mxGeometry width="50" height="50" relative="1" as="geometry">
            <mxPoint x="330" y="290" as="sourcePoint" />
            <mxPoint x="380" y="240" as="targetPoint" />
            <Array as="points">
              <mxPoint x="200" y="130" />
              <mxPoint x="280" y="110" />
            </Array>
          </mxGeometry>
        </mxCell>
        <mxCell id="xxiWGJY82aHQJvhDrTCa-56" value="! &amp;lt; &amp;gt; =" style="edgeLabel;html=1;align=center;verticalAlign=middle;resizable=0;points=[];" parent="xxiWGJY82aHQJvhDrTCa-55" vertex="1" connectable="0">
          <mxGeometry x="0.4195" y="-3" relative="1" as="geometry">
            <mxPoint as="offset" />
          </mxGeometry>
        </mxCell>
        <mxCell id="xxiWGJY82aHQJvhDrTCa-57" value="" style="curved=1;endArrow=classic;html=1;rounded=0;entryX=0.7;entryY=0.075;entryDx=0;entryDy=0;exitX=1;exitY=0.5;exitDx=0;exitDy=0;entryPerimeter=0;" parent="1" source="xxiWGJY82aHQJvhDrTCa-54" target="xxiWGJY82aHQJvhDrTCa-4" edge="1">
          <mxGeometry width="50" height="50" relative="1" as="geometry">
            <mxPoint x="330" y="290" as="sourcePoint" />
            <mxPoint x="380" y="240" as="targetPoint" />
            <Array as="points">
              <mxPoint x="480" y="130" />
              <mxPoint x="590" y="180" />
            </Array>
          </mxGeometry>
        </mxCell>
        <mxCell id="xxiWGJY82aHQJvhDrTCa-58" value="=" style="edgeLabel;html=1;align=center;verticalAlign=middle;resizable=0;points=[];" parent="xxiWGJY82aHQJvhDrTCa-57" vertex="1" connectable="0">
          <mxGeometry x="-0.4548" y="-5" relative="1" as="geometry">
            <mxPoint as="offset" />
          </mxGeometry>
        </mxCell>
        <mxCell id="xxiWGJY82aHQJvhDrTCa-59" value="" style="curved=1;endArrow=classic;html=1;rounded=0;exitX=1;exitY=0;exitDx=0;exitDy=0;entryX=1;entryY=0;entryDx=0;entryDy=0;" parent="1" source="xxiWGJY82aHQJvhDrTCa-54" target="xxiWGJY82aHQJvhDrTCa-4" edge="1">
          <mxGeometry width="50" height="50" relative="1" as="geometry">
            <mxPoint x="330" y="290" as="sourcePoint" />
            <mxPoint x="380" y="240" as="targetPoint" />
            <Array as="points">
              <mxPoint x="480" y="100" />
              <mxPoint x="550" y="120" />
              <mxPoint x="630" y="170" />
            </Array>
          </mxGeometry>
        </mxCell>
        <mxCell id="xxiWGJY82aHQJvhDrTCa-60" value="!= &quot;=&quot; -&amp;gt; unget c" style="edgeLabel;html=1;align=center;verticalAlign=middle;resizable=0;points=[];" parent="xxiWGJY82aHQJvhDrTCa-59" vertex="1" connectable="0">
          <mxGeometry x="-0.2426" relative="1" as="geometry">
            <mxPoint as="offset" />
          </mxGeometry>
        </mxCell>
        <mxCell id="xxiWGJY82aHQJvhDrTCa-61" value="7" style="ellipse;whiteSpace=wrap;html=1;aspect=fixed;" parent="1" vertex="1">
          <mxGeometry x="330" y="280" width="40" height="40" as="geometry" />
        </mxCell>
        <mxCell id="xxiWGJY82aHQJvhDrTCa-62" value="8" style="ellipse;whiteSpace=wrap;html=1;aspect=fixed;" parent="1" vertex="1">
          <mxGeometry x="210" y="340" width="40" height="40" as="geometry" />
        </mxCell>
        <mxCell id="xxiWGJY82aHQJvhDrTCa-63" value="15" style="ellipse;whiteSpace=wrap;html=1;aspect=fixed;" parent="1" vertex="1">
          <mxGeometry x="410" y="340" width="40" height="40" as="geometry" />
        </mxCell>
        <mxCell id="xxiWGJY82aHQJvhDrTCa-64" value="11" style="ellipse;whiteSpace=wrap;html=1;aspect=fixed;" parent="1" vertex="1">
          <mxGeometry x="280" y="430" width="40" height="40" as="geometry" />
        </mxCell>
        <mxCell id="xxiWGJY82aHQJvhDrTCa-66" value="10" style="ellipse;whiteSpace=wrap;html=1;aspect=fixed;" parent="1" vertex="1">
          <mxGeometry x="130" y="390" width="40" height="40" as="geometry" />
        </mxCell>
        <mxCell id="xxiWGJY82aHQJvhDrTCa-67" value="" style="curved=1;endArrow=classic;html=1;rounded=0;exitX=1;exitY=1;exitDx=0;exitDy=0;entryX=0;entryY=0.5;entryDx=0;entryDy=0;" parent="1" source="xxiWGJY82aHQJvhDrTCa-1" target="xxiWGJY82aHQJvhDrTCa-61" edge="1">
          <mxGeometry width="50" height="50" relative="1" as="geometry">
            <mxPoint x="320" y="330" as="sourcePoint" />
            <mxPoint x="370" y="280" as="targetPoint" />
            <Array as="points">
              <mxPoint x="200" y="300" />
              <mxPoint x="270" y="310" />
            </Array>
          </mxGeometry>
        </mxCell>
        <mxCell id="xxiWGJY82aHQJvhDrTCa-68" value="_&amp;nbsp; letter" style="edgeLabel;html=1;align=center;verticalAlign=middle;resizable=0;points=[];" parent="xxiWGJY82aHQJvhDrTCa-67" vertex="1" connectable="0">
          <mxGeometry x="-0.02" y="-2" relative="1" as="geometry">
            <mxPoint as="offset" />
          </mxGeometry>
        </mxCell>
        <mxCell id="xxiWGJY82aHQJvhDrTCa-69" value="" style="curved=1;endArrow=classic;html=1;rounded=0;exitX=0.5;exitY=1;exitDx=0;exitDy=0;entryX=1;entryY=0.5;entryDx=0;entryDy=0;" parent="1" source="xxiWGJY82aHQJvhDrTCa-61" target="xxiWGJY82aHQJvhDrTCa-61" edge="1">
          <mxGeometry width="50" height="50" relative="1" as="geometry">
            <mxPoint x="340" y="380" as="sourcePoint" />
            <mxPoint x="390" y="330" as="targetPoint" />
            <Array as="points">
              <mxPoint x="370" y="350" />
              <mxPoint x="390" y="330" />
            </Array>
          </mxGeometry>
        </mxCell>
        <mxCell id="xxiWGJY82aHQJvhDrTCa-70" value="_ letter&amp;nbsp; digit" style="edgeLabel;html=1;align=center;verticalAlign=middle;resizable=0;points=[];" parent="xxiWGJY82aHQJvhDrTCa-69" vertex="1" connectable="0">
          <mxGeometry x="0.1778" y="4" relative="1" as="geometry">
            <mxPoint x="17" y="-1" as="offset" />
          </mxGeometry>
        </mxCell>
        <mxCell id="xxiWGJY82aHQJvhDrTCa-71" value="" style="curved=1;endArrow=classic;html=1;rounded=0;entryX=0;entryY=1;entryDx=0;entryDy=0;exitX=1;exitY=0;exitDx=0;exitDy=0;" parent="1" source="xxiWGJY82aHQJvhDrTCa-61" target="xxiWGJY82aHQJvhDrTCa-4" edge="1">
          <mxGeometry width="50" height="50" relative="1" as="geometry">
            <mxPoint x="320" y="330" as="sourcePoint" />
            <mxPoint x="370" y="280" as="targetPoint" />
            <Array as="points">
              <mxPoint x="430" y="300" />
              <mxPoint x="530" y="280" />
            </Array>
          </mxGeometry>
        </mxCell>
        <mxCell id="xxiWGJY82aHQJvhDrTCa-72" value="!= letter digit" style="edgeLabel;html=1;align=center;verticalAlign=middle;resizable=0;points=[];" parent="xxiWGJY82aHQJvhDrTCa-71" vertex="1" connectable="0">
          <mxGeometry x="-0.19" relative="1" as="geometry">
            <mxPoint as="offset" />
          </mxGeometry>
        </mxCell>
        <mxCell id="xxiWGJY82aHQJvhDrTCa-73" value="" style="curved=1;endArrow=classic;html=1;rounded=0;exitX=0.5;exitY=1;exitDx=0;exitDy=0;entryX=-0.012;entryY=0.304;entryDx=0;entryDy=0;entryPerimeter=0;" parent="1" source="xxiWGJY82aHQJvhDrTCa-1" target="xxiWGJY82aHQJvhDrTCa-62" edge="1">
          <mxGeometry width="50" height="50" relative="1" as="geometry">
            <mxPoint x="165" y="405" as="sourcePoint" />
            <mxPoint x="215" y="355" as="targetPoint" />
            <Array as="points">
              <mxPoint x="140" y="310" />
              <mxPoint x="180" y="342" />
            </Array>
          </mxGeometry>
        </mxCell>
        <mxCell id="xxiWGJY82aHQJvhDrTCa-74" value="digit" style="edgeLabel;html=1;align=center;verticalAlign=middle;resizable=0;points=[];" parent="xxiWGJY82aHQJvhDrTCa-73" vertex="1" connectable="0">
          <mxGeometry x="0.0205" y="2" relative="1" as="geometry">
            <mxPoint as="offset" />
          </mxGeometry>
        </mxCell>
        <mxCell id="xxiWGJY82aHQJvhDrTCa-75" value="" style="curved=1;endArrow=classic;html=1;rounded=0;exitX=0;exitY=1;exitDx=0;exitDy=0;entryX=0.717;entryY=0.971;entryDx=0;entryDy=0;entryPerimeter=0;" parent="1" source="xxiWGJY82aHQJvhDrTCa-62" target="xxiWGJY82aHQJvhDrTCa-62" edge="1">
          <mxGeometry width="50" height="50" relative="1" as="geometry">
            <mxPoint x="260" y="390" as="sourcePoint" />
            <mxPoint x="280" y="370" as="targetPoint" />
            <Array as="points">
              <mxPoint x="200" y="400" />
              <mxPoint x="220" y="410" />
              <mxPoint x="239" y="410" />
            </Array>
          </mxGeometry>
        </mxCell>
        <mxCell id="xxiWGJY82aHQJvhDrTCa-76" value="digit" style="edgeLabel;html=1;align=center;verticalAlign=middle;resizable=0;points=[];" parent="xxiWGJY82aHQJvhDrTCa-75" vertex="1" connectable="0">
          <mxGeometry x="0.1778" y="4" relative="1" as="geometry">
            <mxPoint x="7" y="-2" as="offset" />
          </mxGeometry>
        </mxCell>
        <mxCell id="xxiWGJY82aHQJvhDrTCa-77" value="" style="curved=1;endArrow=classic;html=1;rounded=0;exitX=1.071;exitY=0.304;exitDx=0;exitDy=0;exitPerimeter=0;entryX=0;entryY=0.25;entryDx=0;entryDy=0;entryPerimeter=0;" parent="1" source="xxiWGJY82aHQJvhDrTCa-62" target="d8cu9FcFIqx3h7Q8h6GW-1" edge="1">
          <mxGeometry width="50" height="50" relative="1" as="geometry">
            <mxPoint x="320" y="310" as="sourcePoint" />
            <mxPoint x="310" y="360" as="targetPoint" />
            <Array as="points">
              <mxPoint x="290" y="372" />
            </Array>
          </mxGeometry>
        </mxCell>
        <mxCell id="xxiWGJY82aHQJvhDrTCa-78" value="&lt;div&gt;&amp;nbsp;&amp;nbsp; . &amp;nbsp;&amp;nbsp; &lt;br&gt;&lt;/div&gt;" style="edgeLabel;html=1;align=center;verticalAlign=middle;resizable=0;points=[];" parent="xxiWGJY82aHQJvhDrTCa-77" vertex="1" connectable="0">
          <mxGeometry x="-0.3792" y="-2" relative="1" as="geometry">
            <mxPoint x="15" as="offset" />
          </mxGeometry>
        </mxCell>
        <mxCell id="xxiWGJY82aHQJvhDrTCa-79" value="" style="curved=1;endArrow=classic;html=1;rounded=0;exitX=0;exitY=1;exitDx=0;exitDy=0;entryX=1;entryY=1;entryDx=0;entryDy=0;" parent="1" source="xxiWGJY82aHQJvhDrTCa-63" target="xxiWGJY82aHQJvhDrTCa-63" edge="1">
          <mxGeometry width="50" height="50" relative="1" as="geometry">
            <mxPoint x="340" y="398" as="sourcePoint" />
            <mxPoint x="375" y="390" as="targetPoint" />
            <Array as="points">
              <mxPoint x="400" y="380" />
              <mxPoint x="410" y="390" />
              <mxPoint x="480" y="390" />
            </Array>
          </mxGeometry>
        </mxCell>
        <mxCell id="xxiWGJY82aHQJvhDrTCa-80" value="digit" style="edgeLabel;html=1;align=center;verticalAlign=middle;resizable=0;points=[];" parent="xxiWGJY82aHQJvhDrTCa-79" vertex="1" connectable="0">
          <mxGeometry x="0.1778" y="4" relative="1" as="geometry">
            <mxPoint x="7" y="-2" as="offset" />
          </mxGeometry>
        </mxCell>
        <mxCell id="xxiWGJY82aHQJvhDrTCa-82" value="" style="curved=1;endArrow=classic;html=1;rounded=0;exitX=1;exitY=0.5;exitDx=0;exitDy=0;entryX=0;entryY=0.5;entryDx=0;entryDy=0;" parent="1" source="xxiWGJY82aHQJvhDrTCa-63" target="xxiWGJY82aHQJvhDrTCa-100" edge="1">
          <mxGeometry width="50" height="50" relative="1" as="geometry">
            <mxPoint x="320" y="310" as="sourcePoint" />
            <mxPoint x="370" y="260" as="targetPoint" />
            <Array as="points">
              <mxPoint x="480" y="360" />
              <mxPoint x="490" y="340" />
              <mxPoint x="520" y="340" />
            </Array>
          </mxGeometry>
        </mxCell>
        <mxCell id="xxiWGJY82aHQJvhDrTCa-84" value="" style="curved=1;endArrow=classic;html=1;rounded=0;exitX=1;exitY=1;exitDx=0;exitDy=0;entryX=0;entryY=0.75;entryDx=0;entryDy=0;entryPerimeter=0;" parent="1" source="xxiWGJY82aHQJvhDrTCa-62" target="xxiWGJY82aHQJvhDrTCa-100" edge="1">
          <mxGeometry width="50" height="50" relative="1" as="geometry">
            <mxPoint x="320" y="380" as="sourcePoint" />
            <mxPoint x="370" y="330" as="targetPoint" />
            <Array as="points">
              <mxPoint x="400" y="520" />
            </Array>
          </mxGeometry>
        </mxCell>
        <mxCell id="xxiWGJY82aHQJvhDrTCa-85" value="!= .&lt;br&gt;unget c" style="edgeLabel;html=1;align=center;verticalAlign=middle;resizable=0;points=[];" parent="xxiWGJY82aHQJvhDrTCa-84" vertex="1" connectable="0">
          <mxGeometry x="0.2632" y="31" relative="1" as="geometry">
            <mxPoint x="2" y="-11" as="offset" />
          </mxGeometry>
        </mxCell>
        <mxCell id="xxiWGJY82aHQJvhDrTCa-86" value="" style="curved=1;endArrow=classic;html=1;rounded=0;exitX=0.5;exitY=1;exitDx=0;exitDy=0;entryX=0;entryY=0;entryDx=0;entryDy=0;" parent="1" source="xxiWGJY82aHQJvhDrTCa-1" target="xxiWGJY82aHQJvhDrTCa-66" edge="1">
          <mxGeometry width="50" height="50" relative="1" as="geometry">
            <mxPoint x="320" y="380" as="sourcePoint" />
            <mxPoint x="370" y="330" as="targetPoint" />
            <Array as="points">
              <mxPoint x="90" y="340" />
              <mxPoint x="100" y="380" />
            </Array>
          </mxGeometry>
        </mxCell>
        <mxCell id="xxiWGJY82aHQJvhDrTCa-89" value="&amp;nbsp;&amp;nbsp; &#39;&amp;nbsp;&amp;nbsp; " style="edgeLabel;html=1;align=center;verticalAlign=middle;resizable=0;points=[];" parent="xxiWGJY82aHQJvhDrTCa-86" vertex="1" connectable="0">
          <mxGeometry x="0.1124" relative="1" as="geometry">
            <mxPoint as="offset" />
          </mxGeometry>
        </mxCell>
        <mxCell id="xxiWGJY82aHQJvhDrTCa-90" value="" style="curved=1;endArrow=classic;html=1;rounded=0;exitX=1.029;exitY=0.638;exitDx=0;exitDy=0;exitPerimeter=0;entryX=0;entryY=0.5;entryDx=0;entryDy=0;" parent="1" source="xxiWGJY82aHQJvhDrTCa-66" target="xxiWGJY82aHQJvhDrTCa-64" edge="1">
          <mxGeometry width="50" height="50" relative="1" as="geometry">
            <mxPoint x="320" y="330" as="sourcePoint" />
            <mxPoint x="370" y="280" as="targetPoint" />
            <Array as="points">
              <mxPoint x="220" y="450" />
            </Array>
          </mxGeometry>
        </mxCell>
        <mxCell id="xxiWGJY82aHQJvhDrTCa-91" value="!= &#39;" style="edgeLabel;html=1;align=center;verticalAlign=middle;resizable=0;points=[];" parent="xxiWGJY82aHQJvhDrTCa-90" vertex="1" connectable="0">
          <mxGeometry x="-0.2459" y="5" relative="1" as="geometry">
            <mxPoint as="offset" />
          </mxGeometry>
        </mxCell>
        <mxCell id="xxiWGJY82aHQJvhDrTCa-92" value="" style="curved=1;endArrow=classic;html=1;rounded=0;exitX=1;exitY=0.5;exitDx=0;exitDy=0;entryX=0;entryY=1;entryDx=0;entryDy=0;" parent="1" source="xxiWGJY82aHQJvhDrTCa-64" target="xxiWGJY82aHQJvhDrTCa-100" edge="1">
          <mxGeometry width="50" height="50" relative="1" as="geometry">
            <mxPoint x="350" y="490" as="sourcePoint" />
            <mxPoint x="400" y="440" as="targetPoint" />
            <Array as="points">
              <mxPoint x="400" y="470" />
              <mxPoint x="480" y="440" />
            </Array>
          </mxGeometry>
        </mxCell>
        <mxCell id="xxiWGJY82aHQJvhDrTCa-93" value="&amp;nbsp;&amp;nbsp; &#39;&amp;nbsp;&amp;nbsp; " style="edgeLabel;html=1;align=center;verticalAlign=middle;resizable=0;points=[];" parent="xxiWGJY82aHQJvhDrTCa-92" vertex="1" connectable="0">
          <mxGeometry x="-0.2965" relative="1" as="geometry">
            <mxPoint as="offset" />
          </mxGeometry>
        </mxCell>
        <mxCell id="xxiWGJY82aHQJvhDrTCa-95" value="12" style="ellipse;whiteSpace=wrap;html=1;aspect=fixed;" parent="1" vertex="1">
          <mxGeometry x="160" y="450" width="40" height="40" as="geometry" />
        </mxCell>
        <mxCell id="xxiWGJY82aHQJvhDrTCa-96" value="" style="curved=1;endArrow=classic;html=1;rounded=0;exitX=0.362;exitY=0.992;exitDx=0;exitDy=0;exitPerimeter=0;entryX=0;entryY=0.25;entryDx=0;entryDy=0;entryPerimeter=0;" parent="1" source="xxiWGJY82aHQJvhDrTCa-1" target="xxiWGJY82aHQJvhDrTCa-95" edge="1">
          <mxGeometry width="50" height="50" relative="1" as="geometry">
            <mxPoint x="50" y="460" as="sourcePoint" />
            <mxPoint x="100" y="410" as="targetPoint" />
            <Array as="points">
              <mxPoint x="50" y="410" />
            </Array>
          </mxGeometry>
        </mxCell>
        <mxCell id="xxiWGJY82aHQJvhDrTCa-97" value="&amp;nbsp;&amp;nbsp; &quot;&amp;nbsp;&amp;nbsp; " style="edgeLabel;html=1;align=center;verticalAlign=middle;resizable=0;points=[];" parent="xxiWGJY82aHQJvhDrTCa-96" vertex="1" connectable="0">
          <mxGeometry x="0.4096" y="20" relative="1" as="geometry">
            <mxPoint as="offset" />
          </mxGeometry>
        </mxCell>
        <mxCell id="xxiWGJY82aHQJvhDrTCa-98" value="" style="curved=1;endArrow=classic;html=1;rounded=0;exitX=1.008;exitY=0.658;exitDx=0;exitDy=0;exitPerimeter=0;entryX=0.225;entryY=1.025;entryDx=0;entryDy=0;entryPerimeter=0;" parent="1" source="xxiWGJY82aHQJvhDrTCa-95" target="xxiWGJY82aHQJvhDrTCa-100" edge="1">
          <mxGeometry width="50" height="50" relative="1" as="geometry">
            <mxPoint x="384" y="500" as="sourcePoint" />
            <mxPoint x="450" y="680" as="targetPoint" />
            <Array as="points">
              <mxPoint x="380" y="530" />
              <mxPoint x="580" y="380" />
            </Array>
          </mxGeometry>
        </mxCell>
        <mxCell id="xxiWGJY82aHQJvhDrTCa-99" value="&amp;nbsp;&amp;nbsp; &quot;&amp;nbsp;&amp;nbsp; " style="edgeLabel;html=1;align=center;verticalAlign=middle;resizable=0;points=[];" parent="xxiWGJY82aHQJvhDrTCa-98" vertex="1" connectable="0">
          <mxGeometry x="0.4096" y="20" relative="1" as="geometry">
            <mxPoint x="-17" y="35" as="offset" />
          </mxGeometry>
        </mxCell>
        <mxCell id="xxiWGJY82aHQJvhDrTCa-100" value="14" style="ellipse;whiteSpace=wrap;html=1;aspect=fixed;" parent="1" vertex="1">
          <mxGeometry x="580" y="290" width="40" height="40" as="geometry" />
        </mxCell>
        <mxCell id="d8cu9FcFIqx3h7Q8h6GW-1" value="9" style="ellipse;whiteSpace=wrap;html=1;aspect=fixed;" vertex="1" parent="1">
          <mxGeometry x="310" y="350" width="40" height="40" as="geometry" />
        </mxCell>
        <mxCell id="d8cu9FcFIqx3h7Q8h6GW-3" value="" style="curved=1;endArrow=classic;html=1;rounded=0;exitX=1;exitY=0.5;exitDx=0;exitDy=0;entryX=-0.025;entryY=0.775;entryDx=0;entryDy=0;entryPerimeter=0;" edge="1" parent="1" source="d8cu9FcFIqx3h7Q8h6GW-1" target="xxiWGJY82aHQJvhDrTCa-63">
          <mxGeometry width="50" height="50" relative="1" as="geometry">
            <mxPoint x="370" y="370" as="sourcePoint" />
            <mxPoint x="427" y="378" as="targetPoint" />
            <Array as="points">
              <mxPoint x="380" y="380" />
            </Array>
          </mxGeometry>
        </mxCell>
        <mxCell id="d8cu9FcFIqx3h7Q8h6GW-4" value="&lt;div&gt;&amp;nbsp;&amp;nbsp; digit &amp;nbsp;&amp;nbsp; &lt;br&gt;&lt;/div&gt;" style="edgeLabel;html=1;align=center;verticalAlign=middle;resizable=0;points=[];" vertex="1" connectable="0" parent="d8cu9FcFIqx3h7Q8h6GW-3">
          <mxGeometry x="-0.3792" y="-2" relative="1" as="geometry">
            <mxPoint x="15" as="offset" />
          </mxGeometry>
        </mxCell>
      </root>
    </mxGraphModel>
  </diagram>
</mxfile>
